<svg width="55" height="58" viewBox="0 0 55 58" fill="none" xmlns="http://www.w3.org/2000/svg">
<path d="M5.66203 42.0533L2.45136 22.9067C1.96603 20.0107 1.72336 18.5653 2.50203 17.616C3.27803 16.6667 4.70736 16.6667 7.56336 16.6667H47.1047C49.9607 16.6667 51.39 16.6667 52.166 17.616C52.9447 18.5653 52.6994 20.0107 52.2167 22.9067L49.006 42.0533C47.942 48.4 47.4114 51.5707 45.238 53.4533C43.0674 55.3333 39.9367 55.3333 33.6754 55.3333H20.9927C14.7314 55.3333 11.6007 55.3333 9.43003 53.4507C7.25669 51.5707 6.72603 48.3973 5.66203 42.0507M42.0007 16.6667C42.0007 12.7768 40.4555 9.0463 37.7049 6.29577C34.9544 3.54523 31.2239 2 27.334 2C23.4442 2 19.7137 3.54523 16.9631 6.29577C14.2126 9.0463 12.6674 12.7768 12.6674 16.6667" stroke="white" stroke-width="4" stroke-linecap="round" stroke-linejoin="round"/>
</svg>
