<svg width="64" height="64" viewBox="0 0 64 64" fill="none" xmlns="http://www.w3.org/2000/svg">
<path d="M28.7201 48.8C24.7487 48.8 20.8664 47.6224 17.5643 45.4159C14.2622 43.2095 11.6885 40.0734 10.1686 36.4043C8.64884 32.7352 8.25119 28.6977 9.02598 24.8026C9.80077 20.9075 11.7132 17.3296 14.5214 14.5213C17.3297 11.7131 20.9076 9.80065 24.8027 9.02586C28.6979 8.25106 32.7353 8.64871 36.4044 10.1685C40.0736 11.6883 43.2096 14.262 45.4161 17.5642C47.6225 20.8663 48.8001 24.7486 48.8001 28.72C48.8001 31.357 48.2808 33.9681 47.2716 36.4043C46.2625 38.8405 44.7835 41.0541 42.9189 42.9187C41.0543 44.7833 38.8406 46.2624 36.4044 47.2715C33.9682 48.2806 31.3571 48.8 28.7201 48.8ZM28.7201 12.6667C25.5556 12.6667 22.4622 13.6051 19.831 15.3632C17.1998 17.1213 15.1491 19.6201 13.9381 22.5438C12.7271 25.4674 12.4102 28.6844 13.0276 31.7881C13.6449 34.8918 15.1688 37.7428 17.4064 39.9804C19.6441 42.218 22.495 43.7419 25.5987 44.3593C28.7024 44.9766 31.9195 44.6598 34.8431 43.4488C37.7667 42.2378 40.2656 40.187 42.0237 37.5558C43.7818 34.9246 44.7201 31.8312 44.7201 28.6667C44.7201 24.4232 43.0344 20.3536 40.0339 17.353C37.0333 14.3524 32.9636 12.6667 28.7201 12.6667Z" fill="white"/>
<path d="M53.3336 55.3333C53.0708 55.3346 52.8104 55.2833 52.5677 55.1826C52.325 55.0818 52.1049 54.9336 51.9202 54.7467L40.9069 43.7333C40.5536 43.3542 40.3613 42.8527 40.3704 42.3346C40.3796 41.8165 40.5895 41.3221 40.9559 40.9557C41.3223 40.5892 41.8167 40.3793 42.3348 40.3702C42.853 40.361 43.3544 40.5534 43.7336 40.9067L54.7469 51.92C55.1214 52.295 55.3318 52.8033 55.3318 53.3333C55.3318 53.8633 55.1214 54.3717 54.7469 54.7467C54.5622 54.9336 54.3421 55.0818 54.0994 55.1826C53.8567 55.2833 53.5963 55.3346 53.3336 55.3333Z" fill="white"/>
</svg>
