<svg width="35" height="35" viewBox="0 0 35 35" fill="none" xmlns="http://www.w3.org/2000/svg">
<path d="M24.7916 30.625V27.7083C24.7916 26.1612 24.177 24.6775 23.083 23.5835C21.9891 22.4896 20.5053 21.875 18.9583 21.875H7.29159C5.74449 21.875 4.26076 22.4896 3.1668 23.5835C2.07283 24.6775 1.45825 26.1612 1.45825 27.7083V30.625" stroke="#818181" stroke-width="2" stroke-linecap="round" stroke-linejoin="round"/>
<path d="M13.1251 16.0417C16.3467 16.0417 18.9584 13.43 18.9584 10.2083C18.9584 6.98667 16.3467 4.375 13.1251 4.375C9.90342 4.375 7.29175 6.98667 7.29175 10.2083C7.29175 13.43 9.90342 16.0417 13.1251 16.0417Z" stroke="#818181" stroke-width="2" stroke-linecap="round" stroke-linejoin="round"/>
<path d="M33.5417 30.625V27.7083C33.5408 26.4158 33.1106 25.1603 32.3187 24.1388C31.5269 23.1173 30.4182 22.3877 29.1667 22.0646" stroke="#818181" stroke-width="2" stroke-linecap="round" stroke-linejoin="round"/>
<path d="M23.3333 4.56458C24.588 4.88585 25.7002 5.6156 26.4944 6.63878C27.2886 7.66196 27.7197 8.92037 27.7197 10.2156C27.7197 11.5109 27.2886 12.7693 26.4944 13.7925C25.7002 14.8156 24.588 15.5454 23.3333 15.8667" stroke="#818181" stroke-width="2" stroke-linecap="round" stroke-linejoin="round"/>
</svg>
