<svg width="35" height="35" viewBox="0 0 35 35" fill="none" xmlns="http://www.w3.org/2000/svg">
<path d="M29.1666 17.5V32.0833H5.83325V17.5" stroke="#818181" stroke-width="2" stroke-linecap="round" stroke-linejoin="round"/>
<path d="M32.0834 10.2084H2.91675V17.5H32.0834V10.2084Z" stroke="#818181" stroke-width="2" stroke-linecap="round" stroke-linejoin="round"/>
<path d="M17.5 32.0834V10.2084" stroke="#818181" stroke-width="2" stroke-linecap="round" stroke-linejoin="round"/>
<path d="M17.5001 10.2083H10.9376C9.97065 10.2083 9.04331 9.82418 8.35959 9.14045C7.67586 8.45673 7.29175 7.52939 7.29175 6.56246C7.29175 5.59552 7.67586 4.66819 8.35959 3.98447C9.04331 3.30074 9.97065 2.91663 10.9376 2.91663C16.0417 2.91663 17.5001 10.2083 17.5001 10.2083Z" stroke="#818181" stroke-width="2" stroke-linecap="round" stroke-linejoin="round"/>
<path d="M17.5 10.2083H24.0625C25.0294 10.2083 25.9568 9.82418 26.6405 9.14045C27.3242 8.45673 27.7083 7.52939 27.7083 6.56246C27.7083 5.59552 27.3242 4.66819 26.6405 3.98447C25.9568 3.30074 25.0294 2.91663 24.0625 2.91663C18.9583 2.91663 17.5 10.2083 17.5 10.2083Z" stroke="#818181" stroke-width="2" stroke-linecap="round" stroke-linejoin="round"/>
</svg>
